<svg width="205" height="62" viewBox="0 0 205 62" fill="none" xmlns="http://www.w3.org/2000/svg">
    <rect x="0.939819" y="35.6989" width="39.4728" height="2.81948" rx="1.40974" fill="white"/>
    <path d="M44.1719 35.6989H91.8139C93.0117 35.6989 93.9828 36.6699 93.9828 37.8677C93.9828 38.2271 93.6915 38.5184 93.3321 38.5184H44.1719V35.6989Z" fill="white"/>
    <path d="M107.14 35.6989H197.834C198.612 35.6989 199.243 36.3301 199.243 37.1087C199.243 37.8872 198.612 38.5184 197.834 38.5184H107.14V35.6989Z" fill="white"/>
    <path d="M19.0973 4.56508C19.5233 4.56508 19.8742 4.70292 20.1499 4.9786C20.4256 5.25429 20.5634 5.60515 20.5634 6.03121V32.4592C20.5634 32.8852 20.4256 33.2361 20.1499 33.5118C19.8742 33.7875 19.5233 33.9253 19.0973 33.9253C18.6712 33.9253 18.3204 33.7875 18.0447 33.5118C17.769 33.2361 17.6312 32.8852 17.6312 32.4592V22.4218H10.6764L3.7593 33.1734C3.45855 33.6747 3.0325 33.9253 2.48113 33.9253C2.03001 33.9253 1.66661 33.8125 1.39093 33.587C1.11525 33.3614 0.977407 33.0607 0.977407 32.6847C0.977407 32.384 1.09019 32.0456 1.31574 31.6697L7.63139 21.7451C5.70161 21.294 4.11017 20.3291 2.85706 18.8505C1.60396 17.3718 0.977407 15.63 0.977407 13.625C0.977407 11.8707 1.3784 10.3168 2.18039 8.96347C3.00743 7.58506 4.13523 6.50739 5.56377 5.73046C7.01737 4.95354 8.65893 4.56508 10.4885 4.56508H19.0973ZM17.6312 7.38456H10.4885C8.53362 7.38456 6.94218 7.94846 5.71414 9.07625C4.4861 10.204 3.87208 11.7203 3.87208 13.625C3.87208 15.4545 4.4861 16.9207 5.71414 18.0234C6.94218 19.1261 8.53362 19.6775 10.4885 19.6775H17.6312V7.38456ZM49.1806 13.1739C51.1354 13.1739 52.9023 13.6375 54.4812 14.5648C56.0852 15.4671 57.3383 16.7202 58.2405 18.3242C59.1678 19.9281 59.6315 21.7075 59.6315 23.6624C59.6315 25.6172 59.1803 27.3966 58.2781 29.0006C57.4009 30.5795 56.1854 31.8326 54.6316 32.7599C53.1028 33.6621 51.386 34.1133 49.4813 34.1133C47.8523 34.1133 46.3611 33.7749 45.0077 33.0982C43.6544 32.3965 42.5391 31.4441 41.662 30.2412V41.2559C41.662 41.682 41.5241 42.0329 41.2484 42.3086C40.9727 42.5842 40.6219 42.7221 40.1958 42.7221C39.7698 42.7221 39.4189 42.5842 39.1432 42.3086C38.8926 42.0329 38.7673 41.682 38.7673 41.2559V32.8351C38.7422 32.7599 38.7297 32.6471 38.7297 32.4968V23.6624C38.7297 21.7075 39.1808 19.9281 40.083 18.3242C41.0103 16.7202 42.2634 15.4671 43.8424 14.5648C45.4463 13.6375 47.2257 13.1739 49.1806 13.1739ZM49.1806 31.4817C50.6091 31.4817 51.8998 31.1434 53.0527 30.4667C54.2306 29.7901 55.1453 28.8628 55.797 27.6848C56.4736 26.4819 56.812 25.141 56.812 23.6624C56.812 22.1837 56.4736 20.8554 55.797 19.6775C55.1453 18.4745 54.2306 17.5347 53.0527 16.858C51.8998 16.1563 50.6091 15.8054 49.1806 15.8054C47.752 15.8054 46.4613 16.1563 45.3085 16.858C44.1556 17.5347 43.2409 18.4745 42.5642 19.6775C41.9126 20.8554 41.5868 22.1837 41.5868 23.6624C41.5868 24.0884 41.5993 24.4017 41.6244 24.6022C41.6494 24.6523 41.662 24.715 41.662 24.7902C41.9126 26.745 42.7271 28.349 44.1055 29.6021C45.509 30.8552 47.2007 31.4817 49.1806 31.4817ZM74.6699 34.1133C72.69 34.1133 70.898 33.6621 69.2941 32.7599C67.7151 31.8577 66.4746 30.6171 65.5723 29.0382C64.6701 27.4342 64.219 25.6423 64.219 23.6624C64.219 21.6825 64.6701 19.8905 65.5723 18.2866C66.4746 16.6826 67.7151 15.4295 69.2941 14.5273C70.898 13.625 72.69 13.1739 74.6699 13.1739C76.6498 13.1739 78.4292 13.625 80.0081 14.5273C81.587 15.4295 82.8276 16.6826 83.7298 18.2866C84.6571 19.8905 85.1208 21.6825 85.1208 23.6624C85.1208 25.6423 84.6696 27.4342 83.7674 29.0382C82.8652 30.6171 81.6121 31.8577 80.0081 32.7599C78.4292 33.6621 76.6498 34.1133 74.6699 34.1133ZM74.6699 31.4817C76.1235 31.4817 77.4267 31.1434 78.5796 30.4667C79.7324 29.7901 80.6346 28.8628 81.2863 27.6848C81.9379 26.4819 82.2637 25.141 82.2637 23.6624C82.2637 22.1587 81.9379 20.8178 81.2863 19.6399C80.6346 18.4369 79.7324 17.4971 78.5796 16.8204C77.4267 16.1438 76.1235 15.8054 74.6699 15.8054C73.2413 15.8054 71.9381 16.1438 70.7602 16.8204C69.6073 17.4971 68.6926 18.4369 68.0159 19.6399C67.3643 20.8178 67.0385 22.1587 67.0385 23.6624C67.0385 25.141 67.3643 26.4819 68.0159 27.6848C68.6926 28.8628 69.6073 29.7901 70.7602 30.4667C71.9381 31.1434 73.2413 31.4817 74.6699 31.4817ZM100.111 13.1739C102.116 13.1739 103.908 13.625 105.487 14.5273C107.066 15.4044 108.307 16.645 109.209 18.249C110.111 19.8279 110.562 21.6323 110.562 23.6624V31.3314C110.562 33.3363 110.111 35.1533 109.209 36.7824C108.332 38.4114 107.104 39.6896 105.525 40.6169C103.946 41.5692 102.166 42.0454 100.186 42.0454C98.2567 42.0454 96.54 41.682 95.0362 40.9552C93.5325 40.2284 92.2669 39.2134 91.2393 37.9102C91.0138 37.6595 90.901 37.3713 90.901 37.0455C90.901 36.6696 91.0764 36.3438 91.4273 36.0681C91.6779 35.8927 91.9536 35.8049 92.2543 35.8049C92.4799 35.8049 92.7055 35.8551 92.931 35.9553C93.1566 36.0806 93.332 36.231 93.4573 36.4064C94.2092 37.3588 95.1615 38.0981 96.3144 38.6244C97.4672 39.1507 98.7705 39.4139 100.224 39.4139C101.628 39.4139 102.893 39.063 104.021 38.3613C105.174 37.6846 106.076 36.7197 106.728 35.4666C107.379 34.2386 107.705 32.8226 107.705 31.2186V29.5269C106.953 30.9554 105.888 32.0832 104.51 32.9103C103.131 33.7123 101.565 34.1133 99.8106 34.1133C97.8557 34.1133 96.1014 33.6747 94.5475 32.7975C93.0187 31.8953 91.8158 30.6547 90.9386 29.0758C90.0865 27.4718 89.6604 25.6673 89.6604 23.6624C89.6604 21.6323 90.1115 19.8279 91.0138 18.249C91.916 16.645 93.1566 15.4044 94.7355 14.5273C96.3395 13.625 98.1314 13.1739 100.111 13.1739ZM100.111 31.4817C101.565 31.4817 102.868 31.1559 104.021 30.5043C105.174 29.8276 106.076 28.9003 106.728 27.7224C107.379 26.5195 107.705 25.1661 107.705 23.6624C107.705 22.1587 107.379 20.8178 106.728 19.6399C106.076 18.4369 105.174 17.4971 104.021 16.8204C102.868 16.1438 101.565 15.8054 100.111 15.8054C98.6326 15.8054 97.3169 16.1438 96.164 16.8204C95.0112 17.4971 94.1089 18.4369 93.4573 19.6399C92.8057 20.8178 92.4799 22.1587 92.4799 23.6624C92.4799 25.1661 92.8057 26.5195 93.4573 27.7224C94.1089 28.9003 95.0112 29.8276 96.164 30.5043C97.3169 31.1559 98.6326 31.4817 100.111 31.4817ZM133.41 13.3619C133.836 13.3619 134.187 13.4997 134.462 13.7754C134.738 14.026 134.876 14.3643 134.876 14.7904V32.4592C134.876 32.8852 134.738 33.2361 134.462 33.5118C134.187 33.7875 133.836 33.9253 133.41 33.9253C132.984 33.9253 132.633 33.7875 132.357 33.5118C132.106 33.2361 131.981 32.8852 131.981 32.4592V31.181C131.154 32.1083 130.152 32.8351 128.974 33.3614C127.796 33.8877 126.518 34.1509 125.139 34.1509C123.36 34.1509 121.756 33.7749 120.327 33.0231C118.924 32.2712 117.821 31.181 117.019 29.7525C116.217 28.2989 115.816 26.5696 115.816 24.5646V14.7904C115.816 14.3894 115.954 14.0511 116.23 13.7754C116.505 13.4997 116.844 13.3619 117.245 13.3619C117.671 13.3619 118.022 13.4997 118.297 13.7754C118.573 14.0511 118.711 14.3894 118.711 14.7904V24.5646C118.711 26.7951 119.325 28.4994 120.553 29.6773C121.806 30.8301 123.435 31.4066 125.44 31.4066C126.668 31.4066 127.771 31.1685 128.748 30.6923C129.751 30.2161 130.54 29.5645 131.117 28.7374C131.693 27.8853 131.981 26.9455 131.981 25.918V14.7904C131.981 14.3643 132.106 14.026 132.357 13.7754C132.633 13.4997 132.984 13.3619 133.41 13.3619ZM158.889 32.0832C158.989 32.3339 159.039 32.5218 159.039 32.6471C159.039 33.1233 158.763 33.5118 158.212 33.8125C158.012 33.9128 157.786 33.9629 157.535 33.9629C157.009 33.9629 156.608 33.6997 156.332 33.1734L149.378 17.7227L142.31 33.1358C142.21 33.3865 142.047 33.587 141.821 33.7373C141.596 33.8877 141.345 33.9629 141.07 33.9629C140.869 33.9629 140.644 33.9002 140.393 33.7749C139.816 33.4742 139.528 33.0857 139.528 32.6095C139.528 32.4842 139.578 32.2963 139.679 32.0456L147.949 14.3393C148.25 13.6877 148.701 13.3619 149.302 13.3619C149.954 13.3619 150.43 13.6877 150.731 14.3393L158.889 32.0832ZM171.255 34.1133C169.3 34.1133 167.546 33.6621 165.992 32.7599C164.438 31.8326 163.21 30.5795 162.308 29.0006C161.43 27.3966 160.992 25.6172 160.992 23.6624C160.992 21.6574 161.418 19.8655 162.27 18.2866C163.122 16.6826 164.3 15.4295 165.804 14.5273C167.308 13.625 168.999 13.1739 170.879 13.1739C174.012 13.1739 176.555 14.3769 178.51 16.7828C178.711 17.0084 178.811 17.2715 178.811 17.5723C178.811 17.9733 178.598 18.3242 178.172 18.6249C177.946 18.7753 177.708 18.8505 177.458 18.8505C177.082 18.8505 176.718 18.6625 176.367 18.2866C175.616 17.4595 174.789 16.8455 173.886 16.4445C172.984 16.0184 171.982 15.8054 170.879 15.8054C169.5 15.8054 168.272 16.1438 167.195 16.8204C166.117 17.472 165.277 18.3993 164.676 19.6023C164.1 20.8053 163.811 22.1587 163.811 23.6624C163.811 25.141 164.125 26.4819 164.751 27.6848C165.378 28.8628 166.255 29.7901 167.383 30.4667C168.51 31.1434 169.801 31.4817 171.255 31.4817C173.26 31.4817 174.876 30.9429 176.104 29.8652C176.43 29.5896 176.768 29.4517 177.119 29.4517C177.42 29.4517 177.696 29.552 177.946 29.7525C178.297 30.0532 178.473 30.3915 178.473 30.7675C178.473 31.0933 178.347 31.369 178.097 31.5945C176.292 33.2737 174.012 34.1133 171.255 34.1133ZM198.047 13.3619C198.474 13.3619 198.824 13.4997 199.1 13.7754C199.376 14.0511 199.514 14.4019 199.514 14.828V32.4968C199.489 32.9228 199.338 33.2737 199.063 33.5494C198.812 33.8 198.474 33.9253 198.047 33.9253C197.646 33.9253 197.308 33.7875 197.032 33.5118C196.782 33.2361 196.657 32.8852 196.657 32.4592V26.8202H191.506L186.13 33.399C185.855 33.7499 185.479 33.9253 185.003 33.9253C184.627 33.9253 184.288 33.8 183.988 33.5494C183.712 33.2737 183.574 32.9604 183.574 32.6095C183.574 32.2587 183.687 31.9579 183.912 31.7073L188.311 26.1059C187.008 25.6799 185.968 24.9405 185.191 23.8879C184.439 22.8353 184.063 21.5697 184.063 20.091C184.063 18.8129 184.364 17.66 184.965 16.6325C185.592 15.6049 186.456 14.8029 187.559 14.2265C188.687 13.6501 189.952 13.3619 191.356 13.3619H198.047ZM196.657 16.031H191.356C190.053 16.031 188.975 16.4069 188.123 17.1588C187.296 17.8856 186.882 18.863 186.882 20.091C186.882 21.3943 187.296 22.4343 188.123 23.2113C188.975 23.9631 190.053 24.3391 191.356 24.3391H196.657V16.031Z" fill="white"/>
    <path d="M4.77902 50.3154C5.53089 50.3154 6.20286 50.4846 6.79495 50.8229C7.38704 51.1519 7.85226 51.6171 8.1906 52.2186C8.52894 52.8107 8.6981 53.4873 8.6981 54.2486V57.1245C8.6981 57.8763 8.52894 58.5577 8.1906 59.1686C7.86166 59.7795 7.40114 60.2588 6.80905 60.6065C6.21696 60.9637 5.54968 61.1422 4.80722 61.1422C4.08355 61.1422 3.43977 61.0059 2.87587 60.7334C2.31198 60.4608 1.83736 60.0802 1.45203 59.5915C1.36745 59.4975 1.32516 59.3894 1.32516 59.2673C1.32516 59.1263 1.39094 59.0041 1.52252 58.9007C1.6165 58.8349 1.71988 58.8021 1.83266 58.8021C1.91725 58.8021 2.00183 58.8209 2.08642 58.8584C2.171 58.9054 2.23679 58.9618 2.28378 59.0276C2.56573 59.3847 2.92286 59.662 3.35518 59.8594C3.78751 60.0567 4.27622 60.1554 4.82132 60.1554C5.34762 60.1554 5.82223 60.0238 6.24515 59.7607C6.67747 59.5069 7.01581 59.1451 7.26017 58.6752C7.50452 58.2147 7.6267 57.6837 7.6267 57.0822V56.4478C7.34475 56.9835 6.94533 57.4064 6.42842 57.7166C5.91152 58.0173 5.32412 58.1677 4.66624 58.1677C3.93318 58.1677 3.2753 58.0032 2.69261 57.6743C2.11931 57.3359 1.66819 56.8707 1.33925 56.2786C1.01971 55.6771 0.859942 55.0005 0.859942 54.2486C0.859942 53.4873 1.02911 52.8107 1.36745 52.2186C1.70579 51.6171 2.171 51.1519 2.76309 50.8229C3.36458 50.4846 4.03656 50.3154 4.77902 50.3154ZM4.77902 57.1809C5.32412 57.1809 5.81283 57.0587 6.24515 56.8143C6.67747 56.5606 7.01581 56.2128 7.26017 55.7711C7.50452 55.32 7.6267 54.8125 7.6267 54.2486C7.6267 53.6847 7.50452 53.1819 7.26017 52.7402C7.01581 52.289 6.67747 51.9366 6.24515 51.6829C5.81283 51.4291 5.32412 51.3022 4.77902 51.3022C4.22452 51.3022 3.73112 51.4291 3.29879 51.6829C2.86647 51.9366 2.52814 52.289 2.28378 52.7402C2.03943 53.1819 1.91725 53.6847 1.91725 54.2486C1.91725 54.8125 2.03943 55.32 2.28378 55.7711C2.52814 56.2128 2.86647 56.5606 3.29879 56.8143C3.73112 57.0587 4.22452 57.1809 4.77902 57.1809ZM17.7593 57.4064C17.7969 57.5004 17.8157 57.5709 17.8157 57.6179C17.8157 57.7964 17.7123 57.9421 17.5056 58.0549C17.4304 58.0925 17.3458 58.1113 17.2518 58.1113C17.0545 58.1113 16.9041 58.0126 16.8007 57.8152L14.1927 52.0212L11.5424 57.8011C11.5048 57.8951 11.4437 57.9703 11.3591 58.0267C11.2745 58.0831 11.1805 58.1113 11.0772 58.1113C11.002 58.1113 10.9174 58.0878 10.8234 58.0408C10.6072 57.928 10.4992 57.7823 10.4992 57.6038C10.4992 57.5568 10.518 57.4863 10.5555 57.3923L13.657 50.7524C13.7698 50.5081 13.9389 50.3859 14.1645 50.3859C14.4088 50.3859 14.5874 50.5081 14.7002 50.7524L17.7593 57.4064ZM25.1448 50.3859C25.3046 50.3859 25.4362 50.4376 25.5396 50.541C25.6429 50.6444 25.6946 50.7759 25.6946 50.9357V57.5615C25.6852 57.7213 25.6288 57.8528 25.5255 57.9562C25.4315 58.0502 25.3046 58.0972 25.1448 58.0972C24.9945 58.0972 24.8676 58.0455 24.7642 57.9421C24.6702 57.8387 24.6232 57.7072 24.6232 57.5474V55.4328H22.6919L20.6759 57.8998C20.5726 58.0314 20.4316 58.0972 20.253 58.0972C20.1121 58.0972 19.9852 58.0502 19.8724 57.9562C19.769 57.8528 19.7173 57.7353 19.7173 57.6038C19.7173 57.4722 19.7596 57.3594 19.8442 57.2654L21.4936 55.1649C21.0049 55.0052 20.6149 54.7279 20.3235 54.3332C20.0416 53.9384 19.9006 53.4638 19.9006 52.9093C19.9006 52.43 20.0134 51.9977 20.2389 51.6124C20.4739 51.227 20.7981 50.9263 21.2117 50.7101C21.6346 50.494 22.1092 50.3859 22.6355 50.3859H25.1448ZM24.6232 51.3868H22.6355C22.1468 51.3868 21.7427 51.5278 21.4231 51.8097C21.113 52.0823 20.9579 52.4488 20.9579 52.9093C20.9579 53.398 21.113 53.7881 21.4231 54.0794C21.7427 54.3614 22.1468 54.5023 22.6355 54.5023H24.6232V51.3868ZM36.8322 50.3154C37.5841 50.3154 38.2561 50.4846 38.8482 50.8229C39.4403 51.1519 39.9055 51.6171 40.2438 52.2186C40.5822 52.8107 40.7513 53.4873 40.7513 54.2486V57.1245C40.7513 57.8763 40.5822 58.5577 40.2438 59.1686C39.9149 59.7795 39.4544 60.2588 38.8623 60.6065C38.2702 60.9637 37.6029 61.1422 36.8604 61.1422C36.1368 61.1422 35.493 61.0059 34.9291 60.7334C34.3652 60.4608 33.8906 60.0802 33.5053 59.5915C33.4207 59.4975 33.3784 59.3894 33.3784 59.2673C33.3784 59.1263 33.4442 59.0041 33.5757 58.9007C33.6697 58.8349 33.7731 58.8021 33.8859 58.8021C33.9705 58.8021 34.0551 58.8209 34.1396 58.8584C34.2242 58.9054 34.29 58.9618 34.337 59.0276C34.619 59.3847 34.9761 59.662 35.4084 59.8594C35.8407 60.0567 36.3294 60.1554 36.8745 60.1554C37.4008 60.1554 37.8755 60.0238 38.2984 59.7607C38.7307 59.5069 39.069 59.1451 39.3134 58.6752C39.5577 58.2147 39.6799 57.6837 39.6799 57.0822V56.4478C39.398 56.9835 38.9985 57.4064 38.4816 57.7166C37.9647 58.0173 37.3773 58.1677 36.7195 58.1677C35.9864 58.1677 35.3285 58.0032 34.7458 57.6743C34.1725 57.3359 33.7214 56.8707 33.3925 56.2786C33.0729 55.6771 32.9132 55.0005 32.9132 54.2486C32.9132 53.4873 33.0823 52.8107 33.4207 52.2186C33.759 51.6171 34.2242 51.1519 34.8163 50.8229C35.4178 50.4846 36.0898 50.3154 36.8322 50.3154ZM36.8322 57.1809C37.3773 57.1809 37.8661 57.0587 38.2984 56.8143C38.7307 56.5606 39.069 56.2128 39.3134 55.7711C39.5577 55.32 39.6799 54.8125 39.6799 54.2486C39.6799 53.6847 39.5577 53.1819 39.3134 52.7402C39.069 52.289 38.7307 51.9366 38.2984 51.6829C37.8661 51.4291 37.3773 51.3022 36.8322 51.3022C36.2777 51.3022 35.7843 51.4291 35.352 51.6829C34.9197 51.9366 34.5814 52.289 34.337 52.7402C34.0926 53.1819 33.9705 53.6847 33.9705 54.2486C33.9705 54.8125 34.0926 55.32 34.337 55.7711C34.5814 56.2128 34.9197 56.5606 35.352 56.8143C35.7843 57.0587 36.2777 57.1809 36.8322 57.1809ZM46.6265 50.3154C47.322 50.3154 47.9376 50.4799 48.4733 50.8088C49.009 51.1284 49.4225 51.5748 49.7139 52.1481C50.0146 52.7214 50.165 53.3745 50.165 54.1076C50.165 54.258 50.118 54.3802 50.024 54.4741C49.93 54.5587 49.8078 54.601 49.6575 54.601H43.9621C44.0373 55.3717 44.3381 55.9967 44.8644 56.476C45.3907 56.9553 46.0485 57.1949 46.838 57.1949C47.1763 57.1949 47.5147 57.1386 47.853 57.0258C48.2007 56.9036 48.478 56.7532 48.6848 56.5747C48.8069 56.4807 48.9338 56.4337 49.0654 56.4337C49.1688 56.4337 49.2721 56.4713 49.3755 56.5465C49.4977 56.6592 49.5588 56.7861 49.5588 56.9271C49.5588 57.0493 49.5071 57.1574 49.4037 57.2513C49.0936 57.5145 48.6989 57.7353 48.2195 57.9139C47.7402 58.0831 47.2797 58.1677 46.838 58.1677C46.0861 58.1677 45.4142 58.0032 44.8221 57.6743C44.23 57.3359 43.7648 56.8707 43.4264 56.2786C43.0975 55.6771 42.933 55.0005 42.933 54.2486C42.933 53.4873 43.0881 52.8107 43.3982 52.2186C43.7178 51.6171 44.1548 51.1519 44.7093 50.8229C45.2732 50.4846 45.9123 50.3154 46.6265 50.3154ZM46.6265 51.2881C45.9123 51.2881 45.3202 51.509 44.8503 51.9507C44.3803 52.3924 44.0937 52.9751 43.9903 53.6988H49.15C49.0748 52.9751 48.8116 52.3924 48.3605 51.9507C47.9094 51.509 47.3314 51.2881 46.6265 51.2881ZM60.6007 50.3013C61.1552 50.3013 61.6439 50.4329 62.0668 50.696C62.4992 50.9592 62.8328 51.3351 63.0678 51.8238C63.3121 52.3031 63.4343 52.8623 63.4343 53.5014V57.5615C63.4343 57.7213 63.3826 57.8528 63.2792 57.9562C63.1852 58.0502 63.0584 58.0972 62.8986 58.0972C62.7388 58.0972 62.6072 58.0502 62.5039 57.9562C62.4005 57.8528 62.3488 57.7213 62.3488 57.5615V53.5014C62.3488 52.8341 62.1749 52.3078 61.8272 51.9225C61.4888 51.5278 61.0424 51.3304 60.4879 51.3304C59.8958 51.3304 59.4165 51.5278 59.05 51.9225C58.6835 52.3172 58.5049 52.8341 58.5143 53.4732V53.5014V57.5615C58.5143 57.7213 58.4626 57.8528 58.3592 57.9562C58.2652 58.0502 58.1384 58.0972 57.9786 58.0972C57.8188 58.0972 57.6872 58.0502 57.5839 57.9562C57.4805 57.8528 57.4288 57.7213 57.4288 57.5615V53.5014C57.4288 52.8341 57.2549 52.3078 56.9072 51.9225C56.5688 51.5278 56.1224 51.3304 55.5679 51.3304C54.9852 51.3304 54.5059 51.5231 54.13 51.9084C53.7541 52.2937 53.5661 52.7872 53.5661 53.3886V57.5615C53.5661 57.7213 53.5144 57.8528 53.411 57.9562C53.317 58.0502 53.1902 58.0972 53.0304 58.0972C52.8706 58.0972 52.739 58.0502 52.6357 57.9562C52.5323 57.8528 52.4806 57.7213 52.4806 57.5615V50.9357C52.4806 50.7759 52.5323 50.6444 52.6357 50.541C52.739 50.4376 52.8706 50.3859 53.0304 50.3859C53.1902 50.3859 53.317 50.4376 53.411 50.541C53.5144 50.6444 53.5661 50.7759 53.5661 50.9357V51.2458C53.8292 50.9451 54.1394 50.7148 54.4965 50.5551C54.8631 50.3859 55.2578 50.3013 55.6807 50.3013C56.1976 50.3013 56.6628 50.4188 57.0764 50.6537C57.4899 50.8887 57.8188 51.2176 58.0632 51.6406C58.3357 51.2176 58.6882 50.8887 59.1205 50.6537C59.5622 50.4188 60.0556 50.3013 60.6007 50.3013ZM69.5986 50.3154C70.2941 50.3154 70.9097 50.4799 71.4454 50.8088C71.9811 51.1284 72.3946 51.5748 72.6859 52.1481C72.9867 52.7214 73.1371 53.3745 73.1371 54.1076C73.1371 54.258 73.0901 54.3802 72.9961 54.4741C72.9021 54.5587 72.7799 54.601 72.6295 54.601H66.9342C67.0094 55.3717 67.3101 55.9967 67.8364 56.476C68.3627 56.9553 69.0206 57.1949 69.8101 57.1949C70.1484 57.1949 70.4867 57.1386 70.8251 57.0258C71.1728 56.9036 71.4501 56.7532 71.6568 56.5747C71.779 56.4807 71.9059 56.4337 72.0375 56.4337C72.1408 56.4337 72.2442 56.4713 72.3476 56.5465C72.4698 56.6592 72.5309 56.7861 72.5309 56.9271C72.5309 57.0493 72.4792 57.1574 72.3758 57.2513C72.0656 57.5145 71.6709 57.7353 71.1916 57.9139C70.7123 58.0831 70.2518 58.1677 69.8101 58.1677C69.0582 58.1677 68.3862 58.0032 67.7941 57.6743C67.202 57.3359 66.7368 56.8707 66.3985 56.2786C66.0695 55.6771 65.9051 55.0005 65.9051 54.2486C65.9051 53.4873 66.0601 52.8107 66.3703 52.2186C66.6898 51.6171 67.1269 51.1519 67.6814 50.8229C68.2452 50.4846 68.8843 50.3154 69.5986 50.3154ZM69.5986 51.2881C68.8843 51.2881 68.2922 51.509 67.8223 51.9507C67.3524 52.3924 67.0658 52.9751 66.9624 53.6988H72.122C72.0469 52.9751 71.7837 52.3924 71.3326 51.9507C70.8815 51.509 70.3035 51.2881 69.5986 51.2881ZM81.9093 50.3859C82.069 50.3859 82.2006 50.4376 82.304 50.541C82.4074 50.635 82.4591 50.7618 82.4591 50.9216V57.5474C82.4591 57.7072 82.4074 57.8387 82.304 57.9421C82.2006 58.0455 82.069 58.0972 81.9093 58.0972C81.7495 58.0972 81.6179 58.0455 81.5145 57.9421C81.4206 57.8387 81.3736 57.7072 81.3736 57.5474V57.0681C81.0634 57.4158 80.6875 57.6884 80.2458 57.8857C79.8041 58.0831 79.3247 58.1818 78.8078 58.1818C78.1406 58.1818 77.5391 58.0408 77.0034 57.7588C76.4771 57.4769 76.0635 57.0681 75.7628 56.5324C75.4621 55.9873 75.3117 55.3388 75.3117 54.5869V50.9216C75.3117 50.7712 75.3634 50.6444 75.4668 50.541C75.5701 50.4376 75.697 50.3859 75.8474 50.3859C76.0072 50.3859 76.1387 50.4376 76.2421 50.541C76.3455 50.6444 76.3972 50.7712 76.3972 50.9216V54.5869C76.3972 55.4234 76.6274 56.0625 77.088 56.5042C77.5579 56.9365 78.1688 57.1527 78.9206 57.1527C79.3811 57.1527 79.7947 57.0634 80.1612 56.8848C80.5371 56.7062 80.8332 56.4619 81.0493 56.1517C81.2655 55.8322 81.3736 55.4798 81.3736 55.0944V50.9216C81.3736 50.7618 81.4206 50.635 81.5145 50.541C81.6179 50.4376 81.7495 50.3859 81.9093 50.3859ZM78.9629 49.385C78.5118 49.385 78.0983 49.3098 77.7223 49.1594C77.3558 48.9997 77.0645 48.7835 76.8483 48.5109C76.6415 48.2384 76.5382 47.9329 76.5382 47.5946C76.5382 47.4348 76.5852 47.308 76.6791 47.214C76.7731 47.1106 76.8953 47.0589 77.0457 47.0589C77.196 47.0589 77.3182 47.1106 77.4122 47.214C77.5062 47.3174 77.5532 47.4583 77.5532 47.6369C77.5532 47.8907 77.6847 48.1021 77.9479 48.2713C78.2205 48.4311 78.5588 48.5109 78.9629 48.5109C79.367 48.5109 79.7007 48.4311 79.9638 48.2713C80.2364 48.1021 80.3727 47.8907 80.3727 47.6369C80.3727 47.4583 80.4196 47.3174 80.5136 47.214C80.6076 47.1106 80.7298 47.0589 80.8802 47.0589C81.0305 47.0589 81.1527 47.1106 81.2467 47.214C81.3407 47.308 81.3877 47.4348 81.3877 47.5946C81.3877 47.9329 81.2796 48.2384 81.0634 48.5109C80.8567 48.7835 80.5653 48.9997 80.1894 49.1594C79.8229 49.3098 79.414 49.385 78.9629 49.385ZM93.5922 58.1677C92.8497 58.1677 92.1777 57.9985 91.5762 57.6602C90.9842 57.3218 90.5189 56.8566 90.1806 56.2645C89.8423 55.663 89.6731 54.9911 89.6731 54.2486C89.6731 53.5061 89.8423 52.8341 90.1806 52.2327C90.5189 51.6312 90.9842 51.1613 91.5762 50.8229C92.1777 50.4846 92.8497 50.3154 93.5922 50.3154C94.3346 50.3154 95.0019 50.4846 95.594 50.8229C96.1861 51.1613 96.6513 51.6312 96.9896 52.2327C97.3374 52.8341 97.5113 53.5061 97.5113 54.2486C97.5113 54.9911 97.3421 55.663 97.0037 56.2645C96.6654 56.8566 96.1955 57.3218 95.594 57.6602C95.0019 57.9985 94.3346 58.1677 93.5922 58.1677ZM93.5922 57.1809C94.1373 57.1809 94.626 57.054 95.0583 56.8002C95.4906 56.5465 95.829 56.1987 96.0733 55.757C96.3177 55.3059 96.4398 54.8031 96.4398 54.2486C96.4398 53.6847 96.3177 53.1819 96.0733 52.7402C95.829 52.289 95.4906 51.9366 95.0583 51.6829C94.626 51.4291 94.1373 51.3022 93.5922 51.3022C93.0565 51.3022 92.5678 51.4291 92.126 51.6829C91.6937 51.9366 91.3507 52.289 91.0969 52.7402C90.8526 53.1819 90.7304 53.6847 90.7304 54.2486C90.7304 54.8031 90.8526 55.3059 91.0969 55.757C91.3507 56.1987 91.6937 56.5465 92.126 56.8002C92.5678 57.054 93.0565 57.1809 93.5922 57.1809ZM108.222 50.3013C108.776 50.3013 109.265 50.4329 109.688 50.696C110.12 50.9592 110.454 51.3351 110.689 51.8238C110.933 52.3031 111.055 52.8623 111.055 53.5014V57.5615C111.055 57.7213 111.004 57.8528 110.9 57.9562C110.806 58.0502 110.68 58.0972 110.52 58.0972C110.36 58.0972 110.228 58.0502 110.125 57.9562C110.022 57.8528 109.97 57.7213 109.97 57.5615V53.5014C109.97 52.8341 109.796 52.3078 109.448 51.9225C109.11 51.5278 108.664 51.3304 108.109 51.3304C107.517 51.3304 107.038 51.5278 106.671 51.9225C106.305 52.3172 106.126 52.8341 106.135 53.4732V53.5014V57.5615C106.135 57.7213 106.084 57.8528 105.98 57.9562C105.886 58.0502 105.76 58.0972 105.6 58.0972C105.44 58.0972 105.308 58.0502 105.205 57.9562C105.102 57.8528 105.05 57.7213 105.05 57.5615V53.5014C105.05 52.8341 104.876 52.3078 104.528 51.9225C104.19 51.5278 103.744 51.3304 103.189 51.3304C102.606 51.3304 102.127 51.5231 101.751 51.9084C101.375 52.2937 101.187 52.7872 101.187 53.3886V57.5615C101.187 57.7213 101.136 57.8528 101.032 57.9562C100.938 58.0502 100.811 58.0972 100.652 58.0972C100.492 58.0972 100.36 58.0502 100.257 57.9562C100.153 57.8528 100.102 57.7213 100.102 57.5615V50.9357C100.102 50.7759 100.153 50.6444 100.257 50.541C100.36 50.4376 100.492 50.3859 100.652 50.3859C100.811 50.3859 100.938 50.4376 101.032 50.541C101.136 50.6444 101.187 50.7759 101.187 50.9357V51.2458C101.45 50.9451 101.761 50.7148 102.118 50.5551C102.484 50.3859 102.879 50.3013 103.302 50.3013C103.819 50.3013 104.284 50.4188 104.698 50.6537C105.111 50.8887 105.44 51.2176 105.684 51.6406C105.957 51.2176 106.309 50.8887 106.742 50.6537C107.183 50.4188 107.677 50.3013 108.222 50.3013ZM125.178 56.9614C124.43 57.8608 123.441 58.3106 122.211 58.3106C120.981 58.3106 119.992 57.8608 119.244 56.9614C118.496 56.0574 118.122 54.7931 118.122 53.1686C118.122 51.5395 118.496 50.2752 119.244 49.3758C119.992 48.4718 120.981 48.0197 122.211 48.0197C123.441 48.0197 124.43 48.4718 125.178 49.3758C125.926 50.2752 126.3 51.5395 126.3 53.1686C126.3 54.7931 125.926 56.0574 125.178 56.9614ZM124.235 50.0573C123.712 49.3551 123.037 49.0041 122.211 49.0041C121.385 49.0041 120.708 49.3551 120.181 50.0573C119.653 50.7548 119.389 51.7896 119.389 53.1617C119.389 54.5338 119.653 55.5709 120.181 56.2731C120.708 56.9706 121.385 57.3193 122.211 57.3193C123.037 57.3193 123.712 56.9706 124.235 56.2731C124.763 55.5709 125.027 54.5338 125.027 53.1617C125.027 51.7896 124.763 50.7548 124.235 50.0573ZM137.014 50.3154C137.766 50.3154 138.438 50.4846 139.03 50.8229C139.622 51.1519 140.088 51.6171 140.426 52.2186C140.764 52.8107 140.933 53.4873 140.933 54.2486V57.1245C140.933 57.8763 140.764 58.5577 140.426 59.1686C140.097 59.7795 139.637 60.2588 139.044 60.6065C138.452 60.9637 137.785 61.1422 137.043 61.1422C136.319 61.1422 135.675 61.0059 135.111 60.7334C134.547 60.4608 134.073 60.0802 133.687 59.5915C133.603 59.4975 133.561 59.3894 133.561 59.2673C133.561 59.1263 133.626 59.0041 133.758 58.9007C133.852 58.8349 133.955 58.8021 134.068 58.8021C134.153 58.8021 134.237 58.8209 134.322 58.8584C134.406 58.9054 134.472 58.9618 134.519 59.0276C134.801 59.3847 135.158 59.662 135.591 59.8594C136.023 60.0567 136.512 60.1554 137.057 60.1554C137.583 60.1554 138.058 60.0238 138.481 59.7607C138.913 59.5069 139.251 59.1451 139.496 58.6752C139.74 58.2147 139.862 57.6837 139.862 57.0822V56.4478C139.58 56.9835 139.181 57.4064 138.664 57.7166C138.147 58.0173 137.56 58.1677 136.902 58.1677C136.169 58.1677 135.511 58.0032 134.928 57.6743C134.355 57.3359 133.904 56.8707 133.575 56.2786C133.255 55.6771 133.095 55.0005 133.095 54.2486C133.095 53.4873 133.264 52.8107 133.603 52.2186C133.941 51.6171 134.406 51.1519 134.998 50.8229C135.6 50.4846 136.272 50.3154 137.014 50.3154ZM137.014 57.1809C137.56 57.1809 138.048 57.0587 138.481 56.8143C138.913 56.5606 139.251 56.2128 139.496 55.7711C139.74 55.32 139.862 54.8125 139.862 54.2486C139.862 53.6847 139.74 53.1819 139.496 52.7402C139.251 52.289 138.913 51.9366 138.481 51.6829C138.048 51.4291 137.56 51.3022 137.014 51.3022C136.46 51.3022 135.966 51.4291 135.534 51.6829C135.102 51.9366 134.764 52.289 134.519 52.7402C134.275 53.1819 134.153 53.6847 134.153 54.2486C134.153 54.8125 134.275 55.32 134.519 55.7711C134.764 56.2128 135.102 56.5606 135.534 56.8143C135.966 57.0587 136.46 57.1809 137.014 57.1809ZM147.034 58.1677C146.292 58.1677 145.62 57.9985 145.018 57.6602C144.426 57.3218 143.961 56.8566 143.623 56.2645C143.284 55.663 143.115 54.9911 143.115 54.2486C143.115 53.5061 143.284 52.8341 143.623 52.2327C143.961 51.6312 144.426 51.1613 145.018 50.8229C145.62 50.4846 146.292 50.3154 147.034 50.3154C147.777 50.3154 148.444 50.4846 149.036 50.8229C149.628 51.1613 150.093 51.6312 150.432 52.2327C150.779 52.8341 150.953 53.5061 150.953 54.2486C150.953 54.9911 150.784 55.663 150.446 56.2645C150.107 56.8566 149.638 57.3218 149.036 57.6602C148.444 57.9985 147.777 58.1677 147.034 58.1677ZM147.034 57.1809C147.579 57.1809 148.068 57.054 148.5 56.8002C148.933 56.5465 149.271 56.1987 149.515 55.757C149.76 55.3059 149.882 54.8031 149.882 54.2486C149.882 53.6847 149.76 53.1819 149.515 52.7402C149.271 52.289 148.933 51.9366 148.5 51.6829C148.068 51.4291 147.579 51.3022 147.034 51.3022C146.499 51.3022 146.01 51.4291 145.568 51.6829C145.136 51.9366 144.793 52.289 144.539 52.7402C144.295 53.1819 144.172 53.6847 144.172 54.2486C144.172 54.8031 144.295 55.3059 144.539 55.757C144.793 56.1987 145.136 56.5465 145.568 56.8002C146.01 57.054 146.499 57.1809 147.034 57.1809ZM159.182 58.0972C159.032 58.0972 158.9 58.0455 158.788 57.9421C158.684 57.8293 158.633 57.6978 158.633 57.5474C158.633 57.4628 158.67 57.3453 158.745 57.1949L162.946 48.1726H158.097C157.937 48.1726 157.801 48.1209 157.688 48.0175C157.585 47.9048 157.533 47.7732 157.533 47.6228C157.533 47.4724 157.585 47.3456 157.688 47.2422C157.801 47.1294 157.937 47.073 158.097 47.073H163.835C163.985 47.073 164.112 47.1294 164.215 47.2422C164.319 47.3456 164.37 47.4724 164.37 47.6228C164.37 47.6886 164.342 47.7873 164.286 47.9189L159.676 57.787C159.629 57.881 159.558 57.9562 159.464 58.0126C159.38 58.069 159.286 58.0972 159.182 58.0972ZM177.725 57.4064C177.763 57.5004 177.781 57.5709 177.781 57.6179C177.781 57.7964 177.678 57.9421 177.471 58.0549C177.396 58.0925 177.312 58.1113 177.218 58.1113C177.02 58.1113 176.87 58.0126 176.766 57.8152L174.158 52.0212L171.508 57.8011C171.471 57.8951 171.409 57.9703 171.325 58.0267C171.24 58.0831 171.146 58.1113 171.043 58.1113C170.968 58.1113 170.883 58.0878 170.789 58.0408C170.573 57.928 170.465 57.7823 170.465 57.6038C170.465 57.5568 170.484 57.4863 170.521 57.3923L173.623 50.7524C173.736 50.5081 173.905 50.3859 174.13 50.3859C174.375 50.3859 174.553 50.5081 174.666 50.7524L177.725 57.4064ZM182.687 50.3154C183.382 50.3154 183.998 50.4799 184.533 50.8088C185.069 51.1284 185.483 51.5748 185.774 52.1481C186.075 52.7214 186.225 53.3745 186.225 54.1076C186.225 54.258 186.178 54.3802 186.084 54.4741C185.99 54.5587 185.868 54.601 185.718 54.601H180.022C180.097 55.3717 180.398 55.9967 180.924 56.476C181.451 56.9553 182.109 57.1949 182.898 57.1949C183.236 57.1949 183.575 57.1386 183.913 57.0258C184.261 56.9036 184.538 56.7532 184.745 56.5747C184.867 56.4807 184.994 56.4337 185.125 56.4337C185.229 56.4337 185.332 56.4713 185.436 56.5465C185.558 56.6592 185.619 56.7861 185.619 56.9271C185.619 57.0493 185.567 57.1574 185.464 57.2513C185.154 57.5145 184.759 57.7353 184.28 57.9139C183.8 58.0831 183.34 58.1677 182.898 58.1677C182.146 58.1677 181.474 58.0032 180.882 57.6743C180.29 57.3359 179.825 56.8707 179.486 56.2786C179.158 55.6771 178.993 55.0005 178.993 54.2486C178.993 53.4873 179.148 52.8107 179.458 52.2186C179.778 51.6171 180.215 51.1519 180.769 50.8229C181.333 50.4846 181.972 50.3154 182.687 50.3154ZM182.687 51.2881C181.972 51.2881 181.38 51.509 180.91 51.9507C180.44 52.3924 180.154 52.9751 180.05 53.6988H185.21C185.135 52.9751 184.872 52.3924 184.421 51.9507C183.969 51.509 183.391 51.2881 182.687 51.2881ZM196.661 50.3013C197.215 50.3013 197.704 50.4329 198.127 50.696C198.559 50.9592 198.893 51.3351 199.128 51.8238C199.372 52.3031 199.494 52.8623 199.494 53.5014V57.5615C199.494 57.7213 199.443 57.8528 199.339 57.9562C199.245 58.0502 199.118 58.0972 198.959 58.0972C198.799 58.0972 198.667 58.0502 198.564 57.9562C198.461 57.8528 198.409 57.7213 198.409 57.5615V53.5014C198.409 52.8341 198.235 52.3078 197.887 51.9225C197.549 51.5278 197.103 51.3304 196.548 51.3304C195.956 51.3304 195.477 51.5278 195.11 51.9225C194.744 52.3172 194.565 52.8341 194.574 53.4732V53.5014V57.5615C194.574 57.7213 194.523 57.8528 194.419 57.9562C194.325 58.0502 194.198 58.0972 194.039 58.0972C193.879 58.0972 193.747 58.0502 193.644 57.9562C193.541 57.8528 193.489 57.7213 193.489 57.5615V53.5014C193.489 52.8341 193.315 52.3078 192.967 51.9225C192.629 51.5278 192.183 51.3304 191.628 51.3304C191.045 51.3304 190.566 51.5231 190.19 51.9084C189.814 52.2937 189.626 52.7872 189.626 53.3886V57.5615C189.626 57.7213 189.574 57.8528 189.471 57.9562C189.377 58.0502 189.25 58.0972 189.09 58.0972C188.931 58.0972 188.799 58.0502 188.696 57.9562C188.592 57.8528 188.541 57.7213 188.541 57.5615V50.9357C188.541 50.7759 188.592 50.6444 188.696 50.541C188.799 50.4376 188.931 50.3859 189.09 50.3859C189.25 50.3859 189.377 50.4376 189.471 50.541C189.574 50.6444 189.626 50.7759 189.626 50.9357V51.2458C189.889 50.9451 190.199 50.7148 190.557 50.5551C190.923 50.3859 191.318 50.3013 191.741 50.3013C192.258 50.3013 192.723 50.4188 193.136 50.6537C193.55 50.8887 193.879 51.2176 194.123 51.6406C194.396 51.2176 194.748 50.8887 195.181 50.6537C195.622 50.4188 196.116 50.3013 196.661 50.3013Z" fill="white"/>
</svg>












