<svg width="143" height="30" viewBox="0 0 143 30" fill="none" xmlns="http://www.w3.org/2000/svg">
    <path d="M76.2371 25.4821L139.042 25.4821" stroke="white" stroke-width="1.74198" stroke-linecap="round"/>
    <line x1="33.4192" y1="25.4319" x2="65.5216" y2="25.4319" stroke="white" stroke-width="1.74198" stroke-linecap="round"/>
    <line x1="2.84633" y1="25.4317" x2="28.3447" y2="25.4317" stroke="white" stroke-width="1.74198" stroke-linecap="round"/>
    <path d="M14.5804 2.8173C14.8765 2.8173 15.1204 2.91311 15.312 3.10473C15.5036 3.29635 15.5994 3.54022 15.5994 3.83636V22.2056C15.5994 22.5017 15.5036 22.7456 15.312 22.9372C15.1204 23.1288 14.8765 23.2246 14.5804 23.2246C14.2842 23.2246 14.0404 23.1288 13.8487 22.9372C13.6571 22.7456 13.5613 22.5017 13.5613 22.2056V15.2289H8.72733L3.91946 22.702C3.71042 23.0504 3.41428 23.2246 3.03105 23.2246C2.71749 23.2246 2.4649 23.1462 2.27329 22.9894C2.08167 22.8327 1.98586 22.6236 1.98586 22.3623C1.98586 22.1533 2.06425 21.9181 2.22103 21.6568L6.61082 14.7586C5.26949 14.445 4.16333 13.7744 3.29234 12.7466C2.42135 11.7188 1.98586 10.5081 1.98586 9.11456C1.98586 7.89518 2.26458 6.81515 2.82201 5.87448C3.39686 4.91639 4.18075 4.16734 5.17368 3.62732C6.18403 3.08731 7.32503 2.8173 8.59668 2.8173H14.5804ZM13.5613 4.77703H8.59668C7.23793 4.77703 6.13177 5.16898 5.2782 5.95287C4.42463 6.73676 3.99785 7.79066 3.99785 9.11456C3.99785 10.3862 4.42463 11.4053 5.2782 12.1717C6.13177 12.9382 7.23793 13.3214 8.59668 13.3214H13.5613V4.77703ZM35.4903 8.80101C36.849 8.80101 38.0771 9.12327 39.1746 9.7678C40.2894 10.3949 41.1604 11.2659 41.7875 12.3808C42.4321 13.4956 42.7543 14.7325 42.7543 16.0912C42.7543 17.4499 42.4408 18.6867 41.8137 19.8016C41.204 20.8991 40.3591 21.7701 39.2791 22.4146C38.2165 23.0417 37.0232 23.3553 35.6993 23.3553C34.567 23.3553 33.5305 23.1201 32.5899 22.6498C31.6492 22.162 30.874 21.5 30.2643 20.6639V28.3199C30.2643 28.616 30.1685 28.8599 29.9769 29.0515C29.7853 29.2432 29.5414 29.339 29.2453 29.339C28.9491 29.339 28.7053 29.2432 28.5136 29.0515C28.3394 28.8599 28.2523 28.616 28.2523 28.3199V22.4668C28.2349 22.4146 28.2262 22.3362 28.2262 22.2317V16.0912C28.2262 14.7325 28.5398 13.4956 29.1669 12.3808C29.8114 11.2659 30.6824 10.3949 31.7799 9.7678C32.8947 9.12327 34.1315 8.80101 35.4903 8.80101ZM35.4903 21.5262C36.4832 21.5262 37.3803 21.291 38.1816 20.8207C39.0004 20.3503 39.6362 19.7058 40.0891 18.8871C40.5594 18.0509 40.7946 17.119 40.7946 16.0912C40.7946 15.0634 40.5594 14.1402 40.0891 13.3214C39.6362 12.4853 39.0004 11.8321 38.1816 11.3617C37.3803 10.874 36.4832 10.6301 35.4903 10.6301C34.4973 10.6301 33.6002 10.874 32.7989 11.3617C31.9976 11.8321 31.3618 12.4853 30.8914 13.3214C30.4385 14.1402 30.2121 15.0634 30.2121 16.0912C30.2121 16.3873 30.2208 16.6051 30.2382 16.7444C30.2556 16.7793 30.2643 16.8228 30.2643 16.8751C30.4385 18.2338 31.0047 19.3487 31.9628 20.2197C32.9383 21.0907 34.1141 21.5262 35.4903 21.5262ZM53.207 23.3553C51.8309 23.3553 50.5854 23.0417 49.4705 22.4146C48.373 21.7875 47.5108 20.9252 46.8837 19.8277C46.2565 18.7129 45.943 17.4674 45.943 16.0912C45.943 14.715 46.2565 13.4695 46.8837 12.3546C47.5108 11.2398 48.373 10.3688 49.4705 9.74168C50.5854 9.11456 51.8309 8.80101 53.207 8.80101C54.5832 8.80101 55.82 9.11456 56.9175 9.74168C58.0149 10.3688 58.8772 11.2398 59.5043 12.3546C60.1488 13.4695 60.4711 14.715 60.4711 16.0912C60.4711 17.4674 60.1575 18.7129 59.5304 19.8277C58.9033 20.9252 58.0323 21.7875 56.9175 22.4146C55.82 23.0417 54.5832 23.3553 53.207 23.3553ZM53.207 21.5262C54.2174 21.5262 55.1232 21.291 55.9245 20.8207C56.7258 20.3503 57.353 19.7058 57.8059 18.8871C58.2588 18.0509 58.4852 17.119 58.4852 16.0912C58.4852 15.046 58.2588 14.114 57.8059 13.2953C57.353 12.4592 56.7258 11.8059 55.9245 11.3356C55.1232 10.8653 54.2174 10.6301 53.207 10.6301C52.2141 10.6301 51.3083 10.8653 50.4896 11.3356C49.6882 11.8059 49.0524 12.4592 48.5821 13.2953C48.1292 14.114 47.9027 15.046 47.9027 16.0912C47.9027 17.119 48.1292 18.0509 48.5821 18.8871C49.0524 19.7058 49.6882 20.3503 50.4896 20.8207C51.3083 21.291 52.2141 21.5262 53.207 21.5262ZM70.8905 8.80101C72.2841 8.80101 73.5296 9.11456 74.6271 9.74168C75.7245 10.3514 76.5868 11.2136 77.2139 12.3285C77.841 13.426 78.1546 14.6802 78.1546 16.0912V21.4217C78.1546 22.8152 77.841 24.0782 77.2139 25.2105C76.6042 26.3428 75.7507 27.2312 74.6532 27.8757C73.5558 28.5377 72.319 28.8686 70.9428 28.8686C69.6015 28.8686 68.4082 28.616 67.363 28.1109C66.3178 27.6057 65.4381 26.9002 64.7239 25.9944C64.5671 25.8202 64.4888 25.6198 64.4888 25.3934C64.4888 25.1321 64.6107 24.9056 64.8546 24.714C65.0288 24.5921 65.2204 24.5311 65.4294 24.5311C65.5862 24.5311 65.743 24.5659 65.8998 24.6356C66.0565 24.7227 66.1785 24.8272 66.2656 24.9492C66.7882 25.6111 67.4501 26.125 68.2514 26.4908C69.0527 26.8566 69.9586 27.0395 70.9689 27.0395C71.9444 27.0395 72.8241 26.7957 73.608 26.3079C74.4093 25.8376 75.0364 25.1669 75.4894 24.2959C75.9423 23.4424 76.1687 22.4581 76.1687 21.3433V20.1674C75.6461 21.1604 74.9058 21.9443 73.9477 22.5191C72.9896 23.0765 71.9009 23.3553 70.6815 23.3553C69.3227 23.3553 68.1034 23.0504 67.0233 22.4407C65.9607 21.8136 65.1246 20.9513 64.5149 19.8539C63.9226 18.739 63.6265 17.4848 63.6265 16.0912C63.6265 14.6802 63.94 13.426 64.5671 12.3285C65.1943 11.2136 66.0565 10.3514 67.154 9.74168C68.2689 9.11456 69.5144 8.80101 70.8905 8.80101ZM70.8905 21.5262C71.9009 21.5262 72.8067 21.2997 73.608 20.8468C74.4093 20.3765 75.0364 19.7319 75.4894 18.9132C75.9423 18.0771 76.1687 17.1364 76.1687 16.0912C76.1687 15.046 75.9423 14.114 75.4894 13.2953C75.0364 12.4592 74.4093 11.8059 73.608 11.3356C72.8067 10.8653 71.9009 10.6301 70.8905 10.6301C69.8628 10.6301 68.9482 10.8653 68.1469 11.3356C67.3456 11.8059 66.7185 12.4592 66.2656 13.2953C65.8127 14.114 65.5862 15.046 65.5862 16.0912C65.5862 17.1364 65.8127 18.0771 66.2656 18.9132C66.7185 19.7319 67.3456 20.3765 68.1469 20.8468C68.9482 21.2997 69.8628 21.5262 70.8905 21.5262ZM94.0351 8.93165C94.3313 8.93165 94.5751 9.02746 94.7668 9.21908C94.9584 9.39328 95.0542 9.62845 95.0542 9.92458V22.2056C95.0542 22.5017 94.9584 22.7456 94.7668 22.9372C94.5751 23.1288 94.3313 23.2246 94.0351 23.2246C93.739 23.2246 93.4951 23.1288 93.3035 22.9372C93.1293 22.7456 93.0422 22.5017 93.0422 22.2056V21.3171C92.4674 21.9617 91.7706 22.4668 90.9518 22.8327C90.1331 23.1985 89.2447 23.3814 88.2866 23.3814C87.0498 23.3814 85.9349 23.1201 84.942 22.5975C83.9665 22.0749 83.2 21.3171 82.6426 20.3242C82.0851 19.3139 81.8064 18.1119 81.8064 16.7183V9.92458C81.8064 9.64587 81.9022 9.4107 82.0939 9.21908C82.2855 9.02746 82.5206 8.93165 82.7994 8.93165C83.0955 8.93165 83.3394 9.02746 83.531 9.21908C83.7226 9.4107 83.8184 9.64587 83.8184 9.92458V16.7183C83.8184 18.2687 84.2452 19.4532 85.0988 20.272C85.9698 21.0733 87.102 21.4739 88.4956 21.4739C89.3492 21.4739 90.1157 21.3084 90.795 20.9775C91.4918 20.6465 92.0406 20.1936 92.4412 19.6187C92.8419 19.0264 93.0422 18.3732 93.0422 17.659V9.92458C93.0422 9.62845 93.1293 9.39328 93.3035 9.21908C93.4951 9.02746 93.739 8.93165 94.0351 8.93165ZM111.745 21.9443C111.814 22.1185 111.849 22.2491 111.849 22.3362C111.849 22.6672 111.658 22.9372 111.274 23.1462C111.135 23.2159 110.978 23.2507 110.804 23.2507C110.438 23.2507 110.16 23.0678 109.968 22.702L105.134 11.9627L100.222 22.6759C100.152 22.8501 100.039 22.9894 99.8819 23.094C99.7251 23.1985 99.5509 23.2507 99.3593 23.2507C99.2199 23.2507 99.0631 23.2072 98.8889 23.1201C98.4883 22.9111 98.2879 22.641 98.2879 22.3101C98.2879 22.223 98.3228 22.0923 98.3925 21.9181L104.141 9.61103C104.35 9.15811 104.664 8.93165 105.082 8.93165C105.535 8.93165 105.866 9.15811 106.075 9.61103L111.745 21.9443ZM120.34 23.3553C118.981 23.3553 117.762 23.0417 116.682 22.4146C115.602 21.7701 114.748 20.8991 114.121 19.8016C113.511 18.6867 113.207 17.4499 113.207 16.0912C113.207 14.6976 113.503 13.4521 114.095 12.3546C114.687 11.2398 115.506 10.3688 116.551 9.74168C117.596 9.11456 118.772 8.80101 120.079 8.80101C122.256 8.80101 124.024 9.63716 125.383 11.3095C125.522 11.4662 125.592 11.6491 125.592 11.8582C125.592 12.1369 125.444 12.3808 125.148 12.5898C124.991 12.6943 124.826 12.7466 124.651 12.7466C124.39 12.7466 124.138 12.6159 123.894 12.3546C123.371 11.7798 122.796 11.353 122.169 11.0743C121.542 10.7782 120.845 10.6301 120.079 10.6301C119.121 10.6301 118.267 10.8653 117.518 11.3356C116.769 11.7885 116.185 12.433 115.767 13.2692C115.367 14.1053 115.166 15.046 115.166 16.0912C115.166 17.119 115.384 18.0509 115.82 18.8871C116.255 19.7058 116.865 20.3503 117.649 20.8207C118.433 21.291 119.33 21.5262 120.34 21.5262C121.734 21.5262 122.857 21.1517 123.711 20.4026C123.937 20.211 124.172 20.1152 124.416 20.1152C124.625 20.1152 124.817 20.1849 124.991 20.3242C125.235 20.5332 125.357 20.7684 125.357 21.0297C125.357 21.2562 125.27 21.4478 125.096 21.6046C123.841 22.7717 122.256 23.3553 120.34 23.3553ZM138.963 8.93165C139.259 8.93165 139.503 9.02746 139.694 9.21908C139.886 9.4107 139.982 9.65458 139.982 9.95071V22.2317C139.964 22.5278 139.86 22.7717 139.668 22.9633C139.494 23.1375 139.259 23.2246 138.963 23.2246C138.684 23.2246 138.449 23.1288 138.257 22.9372C138.083 22.7456 137.996 22.5017 137.996 22.2056V18.2861H134.416L130.68 22.8588C130.488 23.1027 130.227 23.2246 129.896 23.2246C129.634 23.2246 129.399 23.1375 129.19 22.9633C128.999 22.7717 128.903 22.5539 128.903 22.3101C128.903 22.0662 128.981 21.8572 129.138 21.683L132.195 17.7896C131.289 17.4935 130.566 16.9796 130.026 16.248C129.504 15.5163 129.242 14.6366 129.242 13.6089C129.242 12.7205 129.452 11.9192 129.87 11.2049C130.305 10.4907 130.906 9.93329 131.673 9.53264C132.456 9.13198 133.336 8.93165 134.312 8.93165H138.963ZM137.996 10.7869H134.312C133.406 10.7869 132.657 11.0482 132.064 11.5708C131.49 12.0759 131.202 12.7553 131.202 13.6089C131.202 14.5147 131.49 15.2376 132.064 15.7776C132.657 16.3002 133.406 16.5615 134.312 16.5615H137.996V10.7869Z" fill="white"/>
</svg>
